<?xml version="1.0" standalone="no"?>
<!DOCTYPE svg PUBLIC "-//W3C//DTD SVG 20010904//EN"
 "http://www.w3.org/TR/2001/REC-SVG-20010904/DTD/svg10.dtd">
<svg version="1.0" xmlns="http://www.w3.org/2000/svg"
 width="512.000000pt" height="512.000000pt" viewBox="0 0 512.000000 512.000000"
 preserveAspectRatio="xMidYMid meet">
<metadata>
Created by potrace 1.14, written by Peter Selinger 2001-2017
</metadata>
<g transform="translate(0.000000,512.000000) scale(0.100000,-0.100000)"
fill="#000000" stroke="none">
<path d="M2385 5113 c-625 -43 -1221 -321 -1661 -774 -757 -782 -938 -1956
-450 -2924 271 -535 705 -950 1254 -1195 212 -94 444 -160 697 -196 182 -27
516 -24 704 5 452 69 847 238 1211 519 205 158 459 444 603 678 272 445 406
985 369 1496 -46 652 -311 1224 -773 1673 -522 507 -1232 767 -1954 718z m600
-1748 c290 -61 500 -357 455 -641 -6 -38 -13 -76 -16 -85 -3 -12 10 -22 55
-38 205 -75 322 -308 265 -526 -42 -162 -185 -294 -353 -325 -72 -13 -1590
-13 -1662 0 -88 16 -190 72 -249 136 -60 67 -85 112 -106 197 -45 175 28 367
180 472 l56 38 0 77 c0 171 89 309 249 388 73 36 78 37 186 37 110 0 112 -1
191 -40 43 -22 82 -41 85 -43 4 -2 9 8 12 21 11 43 107 167 165 212 145 116
312 157 487 120z"/>
</g>
</svg>
